<?xml version="1.0" encoding="UTF-8" standalone="no"?>
<!-- Created with Inkscape (http://www.inkscape.org/) -->

<svg
   width="80.789558mm"
   height="66.446815mm"
   viewBox="0 0 80.789558 66.446815"
   version="1.1"
   id="svg5"
   xmlns="http://www.w3.org/2000/svg"
   xmlns:svg="http://www.w3.org/2000/svg">
  <defs
     id="defs2" />
  <g
     id="layer1"
     transform="translate(-9.8715755,-12.422761)">
    <path
       id="rect7580"
       style="opacity:0.995238;fill:#ffffff;fill-opacity:1;stroke:#ffffff;stroke-width:0;stroke-miterlimit:4;stroke-dasharray:none;stroke-opacity:1"
       d="m 138.74805,46.953125 c -0.69897,0.01848 -1.39097,0.305479 -1.91211,0.855469 L 46.791016,142.83594 c -0.06123,0.0536 -0.122617,0.10783 -0.179688,0.16797 l -8.541016,9.01367 c -0.267968,0.28286 -0.461477,0.60773 -0.585937,0.95117 -0.03024,0.0741 -0.05381,0.15156 -0.07422,0.22852 -0.262677,0.94336 -0.0087,1.99381 0.75586,2.71679 l 9.013672,8.54102 c 0.08844,0.084 0.183674,0.15863 0.279296,0.22851 l 94.953127,89.97266 c 1.09992,1.04228 2.82682,0.99659 3.86914,-0.10352 l 8.54102,-9.01367 c 1.04228,-1.09995 0.99625,-2.82686 -0.10352,-3.86914 L 71.943359,163.23438 h 86.687501 c 0.15867,-0.0284 0.32119,-0.0449 0.48828,-0.0449 h 68.9372 29.08233 c 0.2137,0 0.40217,0.0752 0.60156,0.1211 0.0514,-0.002 0.10286,-0.004 0.1543,-0.006 32.00665,-5e-5 57.95318,25.94647 57.95313,57.95312 -0.0217,31.22013 -24.77075,56.81206 -55.97266,57.87891 v 18.95312 c 45.76871,-0.16794 82.77744,-34.81996 82.78125,-77.50976 -7e-4,-42.81061 -37.20883,-77.51523 -83.10742,-77.51563 -0.73178,0.0398 -1.46296,0.0886 -2.19336,0.14649 -0.23228,-0.0637 -0.47546,-0.10156 -0.72852,-0.10156 H 228.42903 71.179688 L 149.82227,60.113281 c 1.04231,-1.099963 0.99444,-2.824914 -0.10547,-3.867187 l -9.01368,-8.541016 c -0.54997,-0.521136 -1.25611,-0.770431 -1.95507,-0.751953 z"
       transform="scale(0.26458333)" />
  </g>
</svg>
