<?xml version="1.0" encoding="UTF-8" standalone="no"?>
<!-- Created with Inkscape (http://www.inkscape.org/) -->

<svg
   width="113.28481mm"
   height="48.97496mm"
   viewBox="0 0 113.28481 48.97496"
   version="1.1"
   id="svg12472"
   xmlns="http://www.w3.org/2000/svg"
   xmlns:svg="http://www.w3.org/2000/svg">
  <defs
     id="defs12469" />
  <g
     id="layer1"
     transform="translate(-6.4521999,-18.309966)">
    <path
       id="rect12498"
       style="opacity:0.995238;fill:#ffffff;stroke:#ffffff;stroke-width:0;stroke-opacity:0"
       d="m 114.67732,67.277341 c 0.18306,-0.02667 0.35631,-0.123295 0.47614,-0.284002 l 4.43935,-5.954092 c 0.23967,-0.321415 0.1739,-0.772835 -0.14752,-1.012505 L 63.691177,18.452029 c -0.173346,-0.129261 -0.384298,-0.166621 -0.579739,-0.125992 -0.195866,-0.04134 -0.407312,-0.0041 -0.581238,0.125414 L 6.7445745,59.984269 c -0.32159,0.239429 -0.38804,0.690708 -0.14862,1.012304 l 4.4352905,5.957812 c 0.23943,0.321596 0.69114,0.387456 1.01273,0.14803 L 63.10674,29.086541 114.14045,67.140926 c 0.16071,0.119835 0.35381,0.163086 0.53687,0.136415 z" />
  </g>
</svg>
